<svg width="11" height="11" viewBox="0 0 11 11" fill="none" xmlns="http://www.w3.org/2000/svg">
<path d="M6.075 0.675C6.075 0.495979 6.00388 0.32429 5.8773 0.197703C5.75071 0.0711158 5.57902 0 5.4 0C5.22098 0 5.04929 0.0711158 4.9227 0.197703C4.79612 0.32429 4.725 0.495979 4.725 0.675V4.725H0.675C0.495979 4.725 0.32429 4.79612 0.197703 4.9227C0.0711158 5.04929 0 5.22098 0 5.4C0 5.57902 0.0711158 5.75071 0.197703 5.8773C0.32429 6.00388 0.495979 6.075 0.675 6.075H4.725V10.125C4.725 10.304 4.79612 10.4757 4.9227 10.6023C5.04929 10.7289 5.22098 10.8 5.4 10.8C5.57902 10.8 5.75071 10.7289 5.8773 10.6023C6.00388 10.4757 6.075 10.304 6.075 10.125V6.075H10.125C10.304 6.075 10.4757 6.00388 10.6023 5.8773C10.7289 5.75071 10.8 5.57902 10.8 5.4C10.8 5.22098 10.7289 5.04929 10.6023 4.9227C10.4757 4.79612 10.304 4.725 10.125 4.725H6.075V0.675Z" fill="#F9F9F9"/>
</svg>
