<svg width="11" height="10" viewBox="0 0 11 10" fill="none" xmlns="http://www.w3.org/2000/svg">
<path d="M1.5 1.44495C1.5 1.1688 1.27614 0.944946 1 0.944946C0.723858 0.944946 0.5 1.1688 0.5 1.44495H1.5ZM1 5.44495H0.5V5.94495H1V5.44495ZM10.3536 5.7985C10.5488 5.60324 10.5488 5.28666 10.3536 5.09139L7.17157 1.90941C6.97631 1.71415 6.65973 1.71415 6.46447 1.90941C6.2692 2.10467 6.2692 2.42126 6.46447 2.61652L9.29289 5.44495L6.46447 8.27337C6.2692 8.46864 6.2692 8.78522 6.46447 8.98048C6.65973 9.17574 6.97631 9.17574 7.17157 8.98048L10.3536 5.7985ZM0.5 1.44495V5.44495H1.5V1.44495H0.5ZM1 5.94495H10V4.94495H1V5.94495Z" fill="white"/>
</svg>
