<svg width="220" height="220" viewBox="0 0 220 220" fill="none" xmlns="http://www.w3.org/2000/svg">
<rect width="220" height="220" fill="url(#paint0_linear_582_1861)"/>
<path d="M150.833 81.1765C150.833 69.8035 146.26 59.5094 138.877 52.0647C131.487 44.6118 121.278 40 110 40C98.7218 40 88.5135 44.6118 81.1227 52.0647C73.74 59.5094 69.1667 69.8035 69.1667 81.1765C69.1667 92.5494 73.74 102.844 81.1227 110.288C88.5135 117.741 98.7218 122.353 110 122.353C121.278 122.353 131.487 117.741 138.877 110.288C142.674 106.469 145.684 101.931 147.736 96.9354C149.788 91.9394 150.84 86.5839 150.833 81.1765ZM61 163.529C61 171.765 79.375 180 110 180C138.73 180 159 171.765 159 163.529C159 147.059 139.776 130.588 110 130.588C79.375 130.588 61 147.059 61 163.529Z" fill="white"/>
<defs>
<linearGradient id="paint0_linear_582_1861" x1="-49.2442" y1="-1.32511e-05" x2="243.663" y2="235.349" gradientUnits="userSpaceOnUse">
<stop stop-color="#6F00FF"/>
<stop offset="1" stop-color="#FC7900"/>
</linearGradient>
</defs>
</svg>
