<svg width="10" height="6" viewBox="0 0 10 6" fill="none" xmlns="http://www.w3.org/2000/svg">
<path fill-rule="evenodd" clip-rule="evenodd" d="M1.12049 1.12538C1.23843 1.00758 1.39831 0.941415 1.565 0.941415C1.7317 0.941415 1.89157 1.00758 2.00952 1.12538L5.12952 4.24538L8.24952 1.12538C8.30711 1.06358 8.37655 1.01401 8.45371 0.979626C8.53087 0.945245 8.61417 0.926759 8.69863 0.925269C8.78309 0.923779 8.86698 0.939315 8.94531 0.970952C9.02364 1.00259 9.09479 1.04968 9.15452 1.10941C9.21425 1.16914 9.26134 1.24029 9.29298 1.31862C9.32461 1.39694 9.34015 1.48084 9.33866 1.5653C9.33717 1.64976 9.31868 1.73306 9.2843 1.81022C9.24992 1.88738 9.20035 1.95682 9.13855 2.01441L5.57403 5.57893C5.45609 5.69672 5.29621 5.76289 5.12952 5.76289C4.96282 5.76289 4.80295 5.69672 4.685 5.57893L1.12049 2.01441C1.00269 1.89647 0.936523 1.73659 0.936523 1.56989C0.936523 1.4032 1.00269 1.24332 1.12049 1.12538Z" fill="#F9F9F9"/>
</svg>
