<svg width="16" height="16" viewBox="0 0 16 16" fill="none" xmlns="http://www.w3.org/2000/svg">
<path d="M15.3925 0.607372C15.0036 0.218475 14.4761 0 13.926 0C13.376 0 12.8485 0.218475 12.4596 0.607372L11.5454 1.52156L14.4783 4.45456L15.3925 3.54037C15.7814 3.15141 15.9999 2.6239 15.9999 2.07387C15.9999 1.52384 15.7814 0.996335 15.3925 0.607372ZM13.64 5.2929L10.707 2.3599L4.0699 8.99708C3.58227 9.48447 3.2238 10.0857 3.02692 10.7464L2.39481 12.868C2.36429 12.9704 2.36202 13.0791 2.38823 13.1826C2.41443 13.2862 2.46815 13.3808 2.54369 13.4563C2.61923 13.5318 2.71378 13.5856 2.81734 13.6118C2.92091 13.638 3.02963 13.6357 3.13201 13.6052L5.25352 12.9731C5.91425 12.7762 6.51549 12.4177 7.00288 11.9301L13.64 5.2929Z" fill="#C48AFF"/>
<path d="M2.37041 2.96265C1.74174 2.96265 1.13881 3.21239 0.694276 3.65693C0.249739 4.10147 0 4.70439 0 5.33307V13.6295C0 14.2582 0.249739 14.8611 0.694276 15.3057C1.13881 15.7502 1.74174 16 2.37041 16H10.6668C11.2955 16 11.8984 15.7502 12.343 15.3057C12.7875 14.8611 13.0372 14.2582 13.0372 13.6295V9.4813C13.0372 9.32413 12.9748 9.1734 12.8637 9.06227C12.7525 8.95113 12.6018 8.8887 12.4446 8.8887C12.2875 8.8887 12.1367 8.95113 12.0256 9.06227C11.9145 9.1734 11.852 9.32413 11.852 9.4813V13.6295C11.852 13.9439 11.7272 14.2453 11.5049 14.4676C11.2826 14.6899 10.9812 14.8147 10.6668 14.8147H2.37041C2.05607 14.8147 1.75461 14.6899 1.53234 14.4676C1.31007 14.2453 1.1852 13.9439 1.1852 13.6295V5.33307C1.1852 5.01873 1.31007 4.71727 1.53234 4.495C1.75461 4.27273 2.05607 4.14786 2.37041 4.14786H6.51862C6.67578 4.14786 6.82651 4.08542 6.93765 3.97429C7.04878 3.86315 7.11122 3.71242 7.11122 3.55525C7.11122 3.39808 7.04878 3.24735 6.93765 3.13622C6.82651 3.02508 6.67578 2.96265 6.51862 2.96265H2.37041Z" fill="#C48AFF"/>
</svg>
