<svg width="13" height="16" viewBox="0 0 13 16" fill="none" xmlns="http://www.w3.org/2000/svg">
<path fill-rule="evenodd" clip-rule="evenodd" d="M5.8425 15.0757L5.895 15.1058L5.916 15.1177C5.99927 15.1628 6.09245 15.1864 6.18713 15.1864C6.2818 15.1864 6.37498 15.1628 6.45825 15.1177L6.47925 15.1065L6.5325 15.0757C6.82584 14.9018 7.11207 14.7162 7.3905 14.5192C8.11131 14.0104 8.78478 13.4375 9.40275 12.8077C10.8608 11.3152 12.375 9.07275 12.375 6.1875C12.375 4.54647 11.7231 2.97266 10.5627 1.81228C9.40234 0.651895 7.82853 0 6.1875 0C4.54647 0 2.97266 0.651895 1.81228 1.81228C0.651895 2.97266 0 4.54647 0 6.1875C0 9.072 1.515 11.3152 2.97225 12.8077C3.58998 13.4375 4.26321 14.0103 4.98375 14.5192C5.26243 14.7162 5.54891 14.9018 5.8425 15.0757ZM6.1875 8.4375C6.78424 8.4375 7.35653 8.20045 7.77849 7.77849C8.20045 7.35653 8.4375 6.78424 8.4375 6.1875C8.4375 5.59076 8.20045 5.01847 7.77849 4.59651C7.35653 4.17455 6.78424 3.9375 6.1875 3.9375C5.59076 3.9375 5.01847 4.17455 4.59651 4.59651C4.17455 5.01847 3.9375 5.59076 3.9375 6.1875C3.9375 6.78424 4.17455 7.35653 4.59651 7.77849C5.01847 8.20045 5.59076 8.4375 6.1875 8.4375Z" fill="#C48AFF"/>
</svg>
