<svg width="20" height="20" viewBox="0 0 20 20" fill="none" xmlns="http://www.w3.org/2000/svg">
<path d="M8.344 1.94C8.434 1.398 8.904 1 9.454 1H10.547C11.097 1 11.567 1.398 11.657 1.94L11.806 2.834C11.876 3.258 12.19 3.598 12.586 3.764C12.984 3.928 13.441 3.906 13.791 3.656L14.528 3.129C14.7448 2.97405 15.0095 2.90107 15.275 2.92305C15.5405 2.94502 15.7897 3.06053 15.978 3.249L16.751 4.023C17.141 4.412 17.191 5.025 16.871 5.473L16.344 6.21C16.094 6.56 16.072 7.016 16.237 7.414C16.402 7.811 16.742 8.124 17.167 8.194L18.06 8.344C18.603 8.434 19 8.903 19 9.453V10.547C19 11.097 18.603 11.567 18.06 11.657L17.166 11.806C16.742 11.876 16.402 12.189 16.237 12.586C16.072 12.984 16.094 13.44 16.344 13.79L16.871 14.528C17.191 14.975 17.14 15.588 16.751 15.978L15.977 16.751C15.7887 16.9392 15.5398 17.0546 15.2745 17.0765C15.0092 17.0985 14.7447 17.0257 14.528 16.871L13.79 16.344C13.44 16.094 12.984 16.072 12.587 16.237C12.189 16.402 11.877 16.742 11.806 17.166L11.657 18.06C11.567 18.602 11.097 19 10.547 19H9.453C8.903 19 8.434 18.602 8.343 18.06L8.195 17.166C8.124 16.742 7.811 16.402 7.414 16.236C7.016 16.072 6.56 16.094 6.21 16.344L5.472 16.871C5.025 17.191 4.412 17.14 4.022 16.751L3.249 15.977C3.06053 15.7887 2.94502 15.5395 2.92305 15.274C2.90107 15.0085 2.97405 14.7438 3.129 14.527L3.656 13.79C3.906 13.44 3.928 12.984 3.764 12.586C3.599 12.189 3.258 11.876 2.834 11.806L1.94 11.656C1.398 11.566 1 11.096 1 10.547V9.453C1 8.903 1.398 8.433 1.94 8.343L2.834 8.194C3.258 8.124 3.599 7.811 3.764 7.414C3.929 7.016 3.907 6.56 3.656 6.21L3.13 5.472C2.97505 5.25524 2.90207 4.99053 2.92405 4.72499C2.94602 4.45945 3.06153 4.21034 3.25 4.022L4.023 3.249C4.21134 3.06053 4.46045 2.94502 4.72599 2.92305C4.99153 2.90107 5.25624 2.97405 5.473 3.129L6.21 3.656C6.56 3.906 7.017 3.928 7.414 3.763C7.811 3.598 8.124 3.258 8.194 2.834L8.344 1.94Z" stroke="#F9F9F9" stroke-width="1.5" stroke-linecap="round" stroke-linejoin="round"/>
<path d="M13.001 10C13.001 10.7956 12.6849 11.5587 12.1223 12.1213C11.5597 12.6839 10.7966 13 10.001 13C9.20533 13 8.44226 12.6839 7.87966 12.1213C7.31705 11.5587 7.00098 10.7956 7.00098 10C7.00098 9.20435 7.31705 8.44129 7.87966 7.87868C8.44226 7.31607 9.20533 7 10.001 7C10.7966 7 11.5597 7.31607 12.1223 7.87868C12.6849 8.44129 13.001 9.20435 13.001 10Z" stroke="#F9F9F9" stroke-width="1.5" stroke-linecap="round" stroke-linejoin="round"/>
</svg>
